<svg xmlns="http://www.w3.org/2000/svg" viewBox="0 0 1080 1080" width="100%">
  <g>
    <defs/>
    <path fill="rgba(0.0, 0.0, 0.0, 1.0)" d="M692.8 616.9C700.3 615.4 707.0 615.4 714.6 613.9C719.8 612.4 727.3 611.7 731.8 608.7C740.1 601.2 749.1 596.6 760.4 595.9C773.1 594.4 785.9 586.9 797.9 580.9C804.7 578.6 812.2 577.1 818.9 575.6C822.0 575.6 826.5 577.1 829.5 578.6C837.7 585.4 843.7 585.4 853.5 578.6C862.5 572.6 870.8 565.1 880.5 559.8C886.5 556.8 894.1 555.3 900.8 553.8C909.8 552.3 918.1 555.3 924.1 562.8C933.9 572.6 945.1 572.6 957.1 569.6C971.4 566.6 984.2 561.3 998.5 556.8C1004.5 555.3 1011.2 552.3 1017.2 552.3C1025.5 552.3 1028.5 555.3 1030.0 564.3C1030.0 572.6 1030.0 580.9 1030.0 589.9C1030.0 594.4 1028.5 599.6 1027.0 604.2C1025.5 616.9 1015.7 621.4 1006.7 627.4C989.4 637.2 972.9 645.5 955.6 656.0C952.6 659.0 948.1 661.2 945.1 664.2C936.9 673.3 927.9 674.8 916.6 673.3C894.8 668.7 879.0 659.0 863.3 647.0C859.5 644.0 856.5 643.2 852.0 640.2C846.7 637.2 840.7 637.2 834.7 640.2C829.5 643.2 823.5 645.5 817.4 650.0C806.2 659.0 793.4 659.7 779.1 657.5C768.6 654.5 757.4 656.0 747.6 656.0C740.1 654.5 733.3 656.0 727.3 653.0C717.6 647.0 707.0 647.0 697.3 651.5C680.0 657.5 664.2 664.2 648.5 668.7C640.2 671.8 629.7 671.8 625.2 661.2C622.9 651.5 619.9 643.2 615.4 634.2C615.4 632.7 615.4 631.2 613.9 629.7C605.6 618.4 610.9 610.2 619.9 602.7C640.9 583.9 665.7 574.1 688.3 559.8C697.3 553.8 704.0 548.6 707.0 538.1C710.0 528.3 719.1 526.8 725.8 525.3C744.6 519.3 763.4 514.0 782.1 508.0C782.9 506.5 784.4 506.5 785.9 505.0C788.9 503.5 794.9 502.0 793.4 496.8C790.4 492.2 785.9 490.7 782.1 490.7C749.1 492.2 717.6 503.5 686.0 512.5C678.5 515.5 674.0 520.8 670.2 526.8C662.7 539.6 654.5 550.8 644.0 562.8C635.7 572.6 625.2 580.1 616.9 588.4C604.1 601.2 592.9 616.9 583.9 634.2C582.4 638.7 580.9 643.2 580.9 645.5C582.4 659.0 574.1 665.7 565.1 670.2C538.0 684.5 509.5 698.8 482.5 711.6C473.5 716.1 470.5 714.6 465.2 706.3C462.2 701.8 459.2 695.8 454.7 690.5C449.4 680.0 449.4 668.7 456.2 659.0C469.0 643.2 476.5 624.4 484.7 605.7C490.7 591.4 500.5 577.1 509.5 564.3C514.8 550.8 522.3 539.6 528.3 528.3C529.8 522.3 529.8 517.0 525.3 514.0C520.8 511.0 516.3 514.0 512.5 517.0C496.7 526.8 486.2 541.1 476.5 555.3C466.7 566.6 460.7 580.9 453.2 595.9C451.7 601.2 446.4 608.7 441.9 612.4C430.6 621.4 426.1 632.7 424.6 647.0C424.6 651.5 424.6 657.5 424.6 661.2C423.1 674.8 414.9 681.5 403.6 678.5C388.6 677.0 375.8 675.5 363.1 681.5C354.8 686.0 351.8 683.0 347.3 675.5C341.3 665.7 342.8 656.0 347.3 645.5C353.3 629.7 360.0 612.4 367.6 595.9C372.8 578.6 380.3 561.3 381.8 544.1C383.3 532.8 384.8 522.3 386.3 512.5C386.3 508.0 388.6 503.5 391.6 502.0C405.9 493.7 410.4 479.5 417.9 466.7C424.6 452.4 426.1 436.7 427.6 420.9C430.6 406.6 438.9 393.1 447.9 381.8C457.7 369.1 469.0 356.3 479.5 343.5C483.2 336.0 487.7 327.8 490.7 318.7C495.2 309.0 502.0 301.5 512.5 300.0C535.0 297.0 558.3 293.2 580.9 291.7C602.6 288.7 604.1 297.0 609.4 312.7C610.9 320.3 615.4 327.8 618.4 334.5C619.9 339.0 618.4 343.5 615.4 345.8C604.1 354.8 595.1 364.6 586.9 375.8C580.9 383.3 572.6 387.8 563.6 391.6C556.8 396.1 549.3 397.6 541.1 400.6C535.0 403.6 530.5 406.6 525.3 408.9C522.3 410.4 519.3 411.9 519.3 414.9C516.3 426.2 506.5 435.2 500.5 444.9C499.0 446.4 498.2 447.9 498.2 449.4C496.7 456.2 492.2 462.2 486.2 465.2C479.5 469.7 478.0 478.0 475.0 485.5C472.0 490.7 469.0 496.8 466.7 501.3C451.7 517.0 435.9 532.8 421.6 548.6C419.4 550.8 417.9 555.3 416.4 559.8C416.4 562.8 416.4 566.6 417.9 568.1C419.4 569.6 424.6 569.6 426.1 568.1C433.7 562.8 440.4 556.8 444.9 550.8C454.7 538.1 463.7 525.3 472.0 512.5C476.5 508.0 481.0 503.5 486.2 501.3C502.0 493.7 512.5 481.0 519.3 466.7C525.3 454.7 533.5 446.4 541.1 436.7C550.8 424.7 562.1 423.1 575.6 427.7C582.4 430.7 588.4 432.2 595.1 436.7C604.1 440.4 608.7 450.9 612.4 459.2C613.9 459.2 612.4 460.7 613.9 460.7C625.2 476.5 616.9 487.7 607.1 501.3C598.1 512.5 588.4 522.3 579.4 533.6C572.6 544.1 568.1 555.3 562.1 565.1C559.8 571.1 555.3 578.6 550.8 585.4C549.3 586.9 550.8 589.9 550.8 592.9C552.3 592.9 555.3 592.9 556.8 592.9C562.1 589.9 568.1 586.9 574.1 582.4C583.9 572.6 593.6 564.3 596.6 549.3C596.6 547.1 599.6 545.6 601.1 544.1C610.9 538.1 622.9 532.8 631.2 525.3C638.7 519.3 644.0 514.0 644.0 505.0C645.5 501.3 644.0 498.3 640.2 496.8C626.7 492.2 625.2 486.2 628.2 473.5C629.7 469.7 629.7 463.7 629.7 457.7C629.7 441.9 638.7 433.7 650.0 429.2C656.7 426.2 665.7 426.2 672.5 422.4C681.5 417.9 688.3 411.9 697.3 407.4C705.5 400.6 710.0 402.1 717.6 408.9C721.3 413.4 725.8 416.4 730.3 420.9C738.6 427.7 747.6 426.2 757.4 423.1C768.6 417.9 782.1 413.4 794.9 407.4C806.2 403.6 817.4 405.1 831.0 406.6C842.2 407.4 852.0 411.9 861.0 422.4C864.8 427.7 869.3 427.7 875.3 422.4C888.0 411.9 891.1 414.9 899.3 427.7C903.8 433.7 908.3 438.9 910.6 446.4C912.1 449.4 912.1 453.9 912.1 456.2C908.3 468.2 903.8 481.0 897.8 493.7C896.3 498.3 894.8 499.8 889.6 499.8C879.0 501.3 869.3 503.5 859.5 505.0C846.7 508.0 837.7 517.0 831.0 528.3C823.5 541.1 813.7 553.8 798.7 561.3C788.9 565.1 779.1 569.6 768.6 572.6C740.1 580.9 711.5 586.9 684.5 599.6C681.5 601.2 677.0 604.2 674.0 607.2C672.5 608.7 672.5 611.7 672.5 612.4C674.0 613.9 675.5 615.4 677.0 615.4C683.0 615.4 687.5 615.4 692.8 615.4C692.8 615.4 692.8 615.4 692.8 616.9ZM333.0 309.0C342.8 309.0 351.8 312.0 360.0 318.7C372.1 326.3 383.3 331.5 394.6 340.5C399.1 342.0 402.1 347.3 402.1 350.3C402.1 363.1 405.9 373.6 411.9 384.8C419.4 396.1 417.9 408.9 411.9 422.4C403.6 440.4 397.6 459.2 388.6 478.0C387.8 484.0 383.3 489.2 380.3 496.8C375.8 503.5 369.1 505.0 361.5 502.0C360.0 501.3 358.5 501.3 358.5 501.3C347.3 492.2 339.0 496.8 328.5 502.0C312.7 514.0 287.2 503.5 282.7 485.5C281.2 479.5 282.7 472.0 284.2 465.2C288.7 449.4 293.2 433.7 297.0 416.4C297.0 411.9 298.5 406.6 293.2 405.1C288.7 403.6 284.2 406.6 281.2 410.4C275.9 424.7 269.9 438.9 263.9 452.4C257.2 468.2 248.1 481.0 230.1 485.5C225.6 486.2 222.6 489.2 218.1 490.7C211.3 493.7 206.8 499.8 206.8 508.0C206.8 515.5 203.8 520.8 197.1 523.8C188.1 528.3 179.8 532.8 170.8 536.6C152.0 545.6 152.0 556.8 153.5 571.1C153.5 577.1 152.0 582.4 152.0 588.4C152.0 592.9 149.7 598.1 151.2 601.2C155.0 605.7 161.0 605.7 167.0 602.7C179.8 595.9 192.6 589.9 203.8 582.4C211.3 578.6 216.6 574.1 222.6 571.1C228.6 566.6 230.1 562.8 225.6 555.3C218.1 541.1 225.6 529.8 242.9 529.8C262.4 531.3 282.7 532.8 304.5 533.6C314.2 535.1 325.5 535.1 337.5 536.6C344.3 538.1 353.3 541.1 357.0 545.6C364.6 552.3 364.6 565.1 356.3 574.1C341.3 586.9 337.5 604.2 336.0 622.9C334.5 631.2 333.0 640.2 321.7 644.0C314.2 647.0 309.0 654.5 303.0 659.7C300.0 662.7 295.5 665.7 291.7 668.7C282.7 671.8 279.7 678.5 278.2 687.5C277.4 695.8 277.4 706.3 275.9 714.6C274.4 728.8 269.9 740.1 258.7 749.1C249.6 754.4 242.9 763.4 233.9 770.1C230.1 774.6 224.1 779.2 218.1 782.2C202.3 793.4 186.5 788.9 172.3 780.7C162.5 773.1 152.0 764.9 142.2 755.9C129.5 743.1 115.2 736.3 96.4 733.3C90.4 733.3 86.7 728.8 82.2 725.8C76.1 724.3 72.4 720.6 66.4 720.6C49.1 722.1 49.1 710.1 50.6 698.8C53.6 681.5 61.9 665.7 76.1 654.5C88.2 645.5 96.4 640.2 107.7 657.5C113.7 665.7 120.5 671.8 131.0 674.8C143.7 680.0 151.2 689.0 156.5 700.3C164.0 713.1 170.8 727.3 178.3 738.6C183.5 749.1 188.1 750.6 195.6 747.6C202.3 744.6 205.3 736.3 202.3 727.3C202.3 725.8 202.3 724.3 200.8 722.8C192.6 713.1 198.6 701.8 200.8 690.5C202.3 683.0 202.3 674.8 203.8 667.2C203.8 664.2 205.3 659.7 206.8 659.0C218.1 645.5 230.1 632.7 241.4 619.9C242.9 616.9 244.4 613.9 245.9 612.4C245.9 610.2 245.9 605.7 244.4 604.2C242.9 602.7 238.4 601.2 235.4 602.7C227.1 607.2 218.1 612.4 209.8 618.4C191.1 631.2 169.3 641.7 145.2 644.0C129.5 647.0 115.2 645.5 104.7 631.2C94.9 616.9 83.7 605.7 73.1 591.4C63.4 580.1 63.4 568.1 73.1 553.8C82.2 541.1 93.4 528.3 102.4 515.5C109.2 505.0 113.7 495.3 118.2 484.0C123.5 470.5 134.0 459.2 143.7 450.9C153.5 441.9 159.5 435.2 158.0 423.1C158.0 414.9 162.5 408.9 169.3 405.1C182.8 397.6 189.6 386.3 197.1 375.1C202.3 364.6 208.3 356.3 215.1 347.3C222.6 339.0 232.4 336.0 242.9 334.5C260.2 331.5 277.4 330.0 293.2 320.3C306.0 312.0 318.7 309.0 333.0 309.0Z" data-tag="?"/>
  </g>
</svg>
