<svg xmlns="http://www.w3.org/2000/svg" viewBox="0 0 1080 1080" width="100%">
  <g>
    <defs/>
    <path fill="rgba(0.0, 0.0, 0.0, 1.0)" d="M1022.4 476.1C980.8 478.9 938.7 490.1 902.7 505.1C899.9 501.8 897.1 499.0 894.3 496.7C906.0 485.9 915.8 469.6 915.8 455.5C915.8 440.1 902.3 428.4 889.2 428.4C869.5 428.4 857.9 447.1 846.2 466.3C835.9 482.2 826.5 498.5 820.5 498.5C817.6 498.5 815.3 496.7 815.8 492.5C816.2 483.6 829.3 450.4 843.8 417.2C867.2 414.4 895.3 413.0 927.5 414.9C936.4 415.3 939.7 400.8 933.6 400.4C904.1 397.6 875.6 398.5 851.8 400.4C853.6 395.2 856.0 390.5 858.3 385.9C860.2 380.3 841.0 379.8 837.3 386.8C834.9 391.9 832.6 397.1 829.8 402.2C811.6 404.6 798.0 407.4 791.5 408.8C778.8 412.5 772.8 427.5 783.1 426.5C790.1 425.1 803.6 422.3 821.4 419.5C814.8 434.5 808.3 449.9 803.2 463.0C790.1 493.4 778.8 505.1 772.8 505.1C770.0 505.1 768.1 503.7 768.1 500.4C768.1 490.1 785.9 464.4 785.9 447.6C785.9 437.8 780.7 435.9 773.2 435.9C768.1 435.9 759.7 439.2 747.1 440.6C748.0 430.7 744.7 420.0 734.9 420.0C719.9 420.0 715.7 445.2 729.3 453.2C720.4 482.6 700.3 512.1 673.7 512.1C664.8 512.1 654.5 507.0 654.5 494.3C654.5 493.9 654.5 493.4 654.5 492.9C682.5 496.7 709.7 484.0 709.7 462.1C709.7 448.0 700.8 436.4 682.5 436.4C663.4 436.4 646.5 454.1 638.6 473.3C624.6 505.5 612.9 517.7 606.8 517.7C604.0 517.7 602.1 516.3 602.1 513.0C602.1 502.3 619.4 477.5 619.4 461.1C619.4 451.3 612.4 443.8 604.5 443.8C594.6 443.8 582.0 451.3 569.9 464.9C581.1 437.8 592.8 410.2 601.7 387.3C604.9 378.9 584.8 375.1 582.0 382.6C570.3 408.8 556.3 442.9 545.1 473.3C528.3 512.6 518.0 526.6 511.9 526.6C508.6 526.6 505.8 524.2 506.3 516.8C509.1 494.3 543.7 418.1 551.2 398.0C554.0 390.5 532.9 385.9 530.1 393.3C521.7 417.2 510.5 446.6 501.1 471.0C492.3 463.0 484.3 459.7 476.8 459.7C465.1 459.7 453.9 468.1 445.0 478.9C435.2 490.1 425.4 498.5 415.6 502.3C412.3 487.3 398.8 475.6 381.9 475.6C371.2 475.6 361.4 481.2 353.4 489.7C353.4 489.7 353.4 489.7 352.9 490.1C351.5 491.5 350.1 492.9 348.7 494.8C339.4 505.5 330.0 514.9 320.7 518.6C316.5 504.6 303.4 494.3 287.5 494.3C264.6 494.3 245.4 519.1 239.8 541.1C180.0 554.6 128.5 580.8 118.7 590.6C112.6 596.7 108.4 611.7 108.4 619.2C108.4 623.4 111.2 626.2 115.5 626.2C123.9 626.2 145.8 607.0 179.0 587.8C184.6 643.0 163.6 678.5 132.3 678.5C103.3 678.5 82.3 660.8 82.3 624.3C82.3 553.2 164.1 436.4 200.5 436.4C204.7 436.4 206.2 438.2 206.2 440.6C206.2 452.7 185.6 477.5 185.6 498.1C185.6 506.5 187.5 514.0 194.9 514.0C211.3 514.0 234.7 470.0 234.7 447.6C234.7 430.7 225.8 419.5 210.4 419.5C148.6 419.5 50.0 538.3 50.0 618.2C49.5 673.8 93.5 701.4 130.4 701.4C197.7 701.4 220.2 636.9 203.8 574.7C215.0 569.6 227.2 564.5 240.3 560.7C243.6 579.4 258.0 591.1 276.3 591.1C300.6 591.1 321.2 559.8 323.5 533.1C327.7 530.8 331.9 527.1 335.6 522.8C334.2 527.1 334.2 531.7 334.2 535.9C334.2 558.8 352.0 572.9 373.5 572.9C392.2 572.9 414.2 543.9 417.5 518.2C423.1 515.4 427.7 510.7 432.4 505.5C430.1 513.0 428.7 520.0 428.7 526.1C428.7 545.8 439.0 557.0 453.9 557.0C466.6 557.0 477.3 546.7 485.7 532.7C487.6 543.4 495.5 548.6 502.1 548.6C509.6 548.6 517.0 543.4 524.1 534.1C524.1 535.9 523.1 537.3 523.1 538.7C521.2 544.8 540.9 546.2 543.7 538.3C544.2 536.4 545.1 534.1 545.6 531.7C564.3 480.3 582.0 466.7 590.9 466.7C593.2 466.7 594.6 467.7 594.6 471.9C594.6 478.9 575.9 508.4 575.0 521.0C573.6 531.7 579.7 539.7 594.2 539.7C608.2 539.7 622.2 527.5 634.4 507.9C638.1 523.3 649.8 532.7 671.3 532.7C710.6 532.7 734.9 487.8 743.8 458.3C750.8 459.3 756.4 458.8 761.1 457.9V458.29999999999995C761.1 464.9 743.8 493.9 742.8 506.0C741.9 517.7 747.5 526.1 761.1 526.1C772.3 526.1 783.1 519.1 792.9 506.5C794.3 514.9 800.3 521.0 811.6 521.0C826.5 521.0 844.3 498.1 860.2 471.4C869.5 455.5 877.0 446.2 884.0 446.2C889.6 446.2 892.0 449.0 892.0 454.6C892.0 464.9 885.0 478.9 877.5 489.7C873.3 488.7 869.1 488.3 865.8 488.3C849.9 488.3 847.1 510.7 866.7 510.7C870.5 510.7 875.1 509.3 879.4 507.4C880.8 509.3 882.2 512.1 882.6 514.9C835.4 538.7 802.7 569.1 802.7 594.8C802.7 609.8 811.6 620.6 834.9 620.6C866.7 620.6 909.7 576.6 909.7 530.8C909.7 527.1 909.3 524.2 908.8 521.0C941.5 508.8 981.3 500.4 1026.6 499.9C1033.6 499.5 1028.5 476.1 1022.4 476.1ZM276.7 568.7C268.3 568.7 262.7 564.0 262.7 550.0C262.7 536.4 272.5 513.5 287.5 513.5C287.5 513.5 288.0 513.5 288.4 513.5C288.4 522.8 292.6 532.7 302.5 535.5C300.1 549.5 289.8 568.7 276.7 568.7ZM372.6 550.4C365.1 550.4 357.2 545.3 357.2 534.1C357.2 521.4 367.4 495.3 381.5 495.3C382.4 495.3 382.4 495.3 383.3 495.3C382.4 504.6 386.1 515.4 396.0 519.1C392.7 533.1 382.4 550.4 372.6 550.4ZM461.4 532.7C455.3 532.7 451.6 530.3 451.6 518.6C451.6 506.5 462.8 480.8 478.7 480.8C482.9 480.8 489.9 483.1 495.1 487.3C490.4 504.6 475.9 532.7 461.4 532.7ZM681.1 455.5C687.2 455.5 691.4 458.3 691.4 465.3C691.4 476.1 677.4 481.7 656.4 483.1C660.1 470.5 669.4 455.5 681.1 455.5ZM831.2 601.4C823.7 601.4 820.5 597.2 820.5 592.5C820.5 575.2 844.3 550.0 884.5 530.3C883.6 567.3 850.4 601.4 831.2 601.4Z" data-tag="?"/>
  </g>
</svg>
