<svg xmlns="http://www.w3.org/2000/svg" viewBox="0 0 1080 1080" width="100%">
  <g>
    <defs/>
    <path fill="rgba(0.0, 0.0, 0.0, 1.0)" d="M1030.0 507.6H965.7L978.6 477.3L979.1 476.3H978.6L990.9 445.9H945.7L965.2 395.6H910.7L917.4 378.1H841.9000000000001L835.2 395.6H620.8000000000001L627.5 378.1H574.6H550.4H498.5L472.3 444.9H441.40000000000003C429.1 444.9 418.3 449.5 411.1 457.8C404.4 449.5 395.2 444.9 385.4 444.9H352.0L378.2 378.1H168.5C148.9 378.1 135.1 387.8 127.9 406.3L52.8 596.0C48.2 606.8 49.2 618.6 56.4 627.4C62.1 636.1 71.8 641.8 82.1 642.3L59.0 701.9H193.70000000000002C212.7 701.9 227.6 692.2 234.3 673.7L246.6 643.8H976.5L1008.9 561.1ZM661.4 519.4 658.9 526.6C658.3 527.7 659.4 529.2 660.9 529.2H712.3000000000001L700.5 560.6H634.7C626.0 560.6 619.3 550.8 622.4 542.6L647.0 480.9C651.2 470.6 657.8 466.5 667.6 466.5H719.0C727.2 466.5 733.4 475.7 730.3 484.0L715.9 519.4ZM670.7 494.8C671.2 492.7 673.3 491.7 675.3 491.7H693.8000000000001C695.9 491.7 696.4 493.2 695.9 494.8L692.8 502.5H667.6ZM779.1 500.4 755.5 560.6H724.1L755.5 480.9C759.6 470.6 765.8 466.5 776.1 466.5H810.5L798.2 497.8H783.8000000000001C781.2 497.8 779.7 498.4 779.1 500.4ZM532.4 560.6H503.1L565.8 399.2H595.6L569.4 466.5H610.5C618.8 466.5 624.9 475.7 621.9 484.0L591.5 560.6H561.7L585.9 500.4C586.4 498.9 584.8 497.8 583.8 497.8H560.2C558.1 497.8 556.6 498.4 556.1 500.4ZM793.5 560.6 837.2 448.0H601.8000000000001L614.7 417.7H850.1L856.8 399.2H886.1L879.4 417.7H933.9000000000001L921.5 448.0H867L822.8 560.6ZM308.8 480.9C312.4 470.6 318.6 466.5 329.4 466.5H385.40000000000003C394.1 466.5 399.8 475.7 396.7 484.0L372.0 546.2C368.4 555.9 361.2 560.6 351.5 560.6H295.40000000000003C286.7 560.6 280.5 550.8 283.6 542.6ZM334.5 497.8H358.1C360.2 497.8 360.7 498.9 360.2 500.4L350.9 526.6C349.9 528.2 348.4 529.2 346.3 529.2H322.20000000000005C320.6 529.2 320.1 527.7 320.6 526.6L329.9 500.4C330.9 498.4 331.9 497.8 334.5 497.8ZM272.3 466.5C281.0 466.5 287.2 475.7 284.1 484.0L259.4 546.2C255.3 555.9 248.7 560.6 238.4 560.6H182.9C174.1 560.6 168.5 550.8 171.0 542.6L196.2 480.9C199.8 470.6 206.0 466.5 216.8 466.5ZM247.6 500.4 237.9 526.6C237.3 528.2 235.3 529.2 233.7 529.2H209.60000000000002C208.0 529.2 207.5 527.7 208.0 526.6L217.3 500.4C217.8 498.4 219.9 497.8 221.9 497.8H245.60000000000002C247.6 497.8 248.1 498.9 247.6 500.4ZM959.6 467.0 947.2 497.3 897.4 529.2H998.6L986.3 560.6H844.9000000000001L856.8 529.7L906.1 497.8H869.6L882.0 467.0ZM134.5 578.0C134.0 579.1 135.1 581.1 136.6 581.1H248.70000000000002L232.7 621.2L214.2 666.5C210.6 676.2 203.9 680.8 193.7 680.8H90.30000000000001L106.3 639.7H176.70000000000002C179.3 639.7 180.3 639.2 180.8 637.2L187.5 621.2H83.60000000000001C74.9 621.2 68.7 612.0 71.8 604.3L147.9 413.5C151.5 403.8 158.2 399.2 168.5 399.2H346.8L331.4 440.3H191.60000000000002C189.5 440.3 188.0 440.8 187.5 442.8ZM407.5 560.6C399.8 560.6 393.1 550.8 396.7 542.6L420.9 480.9C425.5 470.6 431.7 466.5 441.4 466.5H486.70000000000005L513.4 399.2H542.2L478.9 560.6ZM432.7 526.6 443.0 500.4C443.5 498.4 444.5 497.8 447.1 497.8H471.20000000000005C472.3 497.8 473.3 498.9 472.8 500.4L463.0 526.6C462.0 528.2 461.0 529.2 458.9 529.2H434.70000000000005C433.2 529.2 432.2 527.7 432.7 526.6ZM252.3 622.2 268.2 582.2H977.6L962.1 622.2Z" data-tag="?"/>
  </g>
</svg>
