<svg xmlns="http://www.w3.org/2000/svg" viewBox="0 0 1080 1080" width="100%">
  <g>
    <defs/>
    <path fill="rgba(0.0, 0.0, 0.0, 1.0)" d="M847.3 465.8C806.6 465.8 555.5 593.0 498.4 637.0C469.0 659.9 459.3 682.7 459.3 705.5C459.3 730.0 469.0 736.5 482.1 736.5C518.0 736.5 593.0 674.5 661.5 638.7C677.8 831.1 601.1 956.6 498.4 956.6C394.0 956.6 325.5 889.8 325.5 769.1C325.5 516.4 602.8 113.6 733.2 113.6C743.0 113.6 749.5 120.1 749.5 128.3C749.5 169.0 682.7 257.1 682.7 328.8C682.7 353.3 687.5 377.8 712.0 377.8C767.4 377.8 852.2 226.1 852.2 152.7C852.2 95.7 824.5 50.0 765.8 50.0C548.9 50.0 211.4 467.4 211.4 738.1C211.4 937.1 363.1 1030.0 493.5 1030.0C721.8 1030.0 821.3 827.8 734.8 599.5C759.3 584.8 834.3 550.6 853.9 537.6C876.7 522.9 871.8 465.8 847.3 465.8Z" data-tag="?"/>
  </g>
</svg>
