<svg xmlns="http://www.w3.org/2000/svg" viewBox="0 0 1080 1080" width="100%">
  <g>
    <defs/>
    <path fill="rgba(0.0, 0.0, 0.0, 1.0)" d="M840.5 626.0C948.8 585.9 1030.0 587.6 1030.0 546.6C1030.0 514.2 1004.7 502.9 975.8 502.9C941.8 502.9 926.9 520.3 915.6 546.6C898.1 552.7 876.3 565.8 852.7 577.1C844.0 581.5 840.5 580.6 842.2 572.8C844.8 561.4 844.8 548.3 846.6 536.1C848.3 526.5 852.7 516.0 859.7 509.9C880.6 492.4 893.7 467.9 905.1 442.6C922.6 407.7 937.4 360.5 913.0 338.7C900.7 328.2 863.2 345.7 822.1 362.3C813.4 363.1 809.0 362.3 802.9 354.4C755.7 290.6 678.0 246.1 574.1 226.0C567.1 206.8 554.8 202.4 546.1 202.4C537.4 202.4 530.4 206.8 523.4 217.3C492.0 213.8 459.6 211.1 428.2 211.1C183.6 211.1 50.0 332.6 50.0 548.3C50.0 747.4 171.4 877.6 441.3 877.6C662.3 877.6 783.7 798.1 829.1 641.8C830.9 633.0 835.2 626.9 840.5 626.0ZM79.7 548.3C80.6 347.4 202.0 237.4 426.5 237.4C450.9 237.4 474.5 239.1 496.3 241.7C504.2 243.5 508.6 247.8 506.8 253.9C492.0 287.1 487.6 350.0 487.6 442.6C487.6 467.9 487.6 492.4 487.6 516.0C487.6 520.3 486.7 524.7 482.4 524.7C478.9 524.7 474.5 524.7 471.9 524.7C464.0 524.7 463.1 523.0 463.1 517.7C463.1 440.0 439.6 386.7 381.0 386.7C307.7 386.7 281.5 477.5 281.5 546.6C281.5 648.7 322.5 700.3 381.0 700.3C424.7 700.3 446.5 674.1 452.7 648.7C459.6 626.0 458.8 624.3 433.4 624.3H387.1C376.7 624.3 370.6 621.7 370.6 606.8V565.8C370.6 553.5 374.9 549.2 391.5 549.2C413.4 549.2 442.2 550.9 476.2 552.7C483.2 552.7 487.6 557.0 487.6 561.4C487.6 613.8 491.1 652.2 489.3 663.6C476.2 695.9 467.5 743.1 505.1 743.1C546.1 743.1 541.7 721.2 543.5 708.1C547.9 676.7 559.2 612.9 574.1 561.4C575.8 557.0 578.4 552.7 586.3 552.7C593.3 552.7 602.0 552.7 609.0 552.7C616.9 552.7 619.5 555.3 618.6 563.1C610.7 592.0 608.1 622.5 610.7 640.0C616.9 675.8 591.5 698.5 591.5 726.5C591.5 754.4 610.7 760.5 640.4 760.5C664.9 760.5 673.6 743.1 673.6 704.6C673.6 672.3 658.8 626.9 664.9 561.4C664.9 555.3 668.4 552.7 673.6 552.7C688.5 552.7 703.3 552.7 714.7 552.7C722.5 552.7 725.2 555.3 719.1 561.4C710.3 570.1 703.3 577.1 699.0 585.0C688.5 600.7 681.5 675.8 708.6 675.8C714.7 675.8 719.1 675.8 727.8 672.3C736.5 671.5 738.3 675.8 733.9 682.8C697.2 780.6 609.0 847.9 436.9 847.9C193.2 847.9 79.7 732.6 79.7 548.3ZM641.3 384.1C575.8 384.1 558.3 485.4 547.9 508.1C541.7 526.5 534.8 530.8 534.8 503.8C534.8 386.7 573.2 323.8 578.4 274.0C578.4 263.6 581.9 262.7 590.7 263.6C651.8 288.9 694.6 329.9 720.8 375.4C725.2 385.8 725.2 392.8 716.4 397.2C713.8 398.9 710.3 399.8 707.7 403.3C681.5 429.5 681.5 492.4 713.8 485.4C722.5 483.7 731.3 477.5 742.6 472.3C747.0 468.8 751.4 468.8 753.1 476.7C754.0 488.0 754.0 501.1 755.7 513.4C755.7 520.3 754.0 524.7 747.0 524.7C729.5 524.7 704.2 524.7 675.4 524.7C669.3 524.7 669.3 520.3 669.3 513.4C675.4 458.3 675.4 384.1 641.3 384.1ZM694.6 287.1C729.5 304.6 757.5 331.7 777.6 362.3C781.9 369.2 785.4 375.4 775.0 378.0C772.3 378.0 768.0 381.5 764.5 381.5C753.1 385.8 747.0 378.0 742.6 369.2C729.5 341.3 710.3 318.6 690.2 297.6C673.6 282.8 673.6 275.8 694.6 287.1ZM389.8 423.4C354.8 444.4 342.6 505.5 342.6 550.9C342.6 592.0 351.3 658.4 391.5 663.6C401.1 665.3 396.8 672.3 382.8 672.3C342.6 672.3 309.4 619.9 309.4 548.3C309.4 481.9 337.4 418.2 385.4 414.7C394.1 414.7 394.1 420.8 389.8 423.4ZM781.1 445.2C786.3 440.0 794.2 435.6 801.2 429.5C805.5 426.9 811.6 426.9 813.4 433.9C817.8 444.4 820.4 454.0 822.1 464.4C822.1 468.8 822.1 474.9 814.3 481.9C809.9 486.3 802.9 492.4 794.2 498.5C788.1 502.9 783.7 503.8 781.9 494.1C781.1 481.9 779.3 470.6 775.0 458.3C773.2 453.1 775.0 448.7 781.1 445.2ZM416.0 433.9C432.6 433.9 436.9 481.0 436.9 509.9C436.9 517.7 436.9 524.7 429.1 524.7C411.6 524.7 398.5 524.7 383.7 524.7C372.3 524.7 367.9 522.1 372.3 503.8C379.3 467.9 392.4 433.9 416.0 433.9ZM619.5 442.6C632.6 442.6 632.6 490.7 628.2 517.7C627.3 524.7 623.9 526.5 616.9 526.5C608.1 526.5 600.3 526.5 593.3 526.5C587.2 526.5 586.3 523.0 587.2 517.7C597.6 490.7 597.6 442.6 619.5 442.6ZM768.8 605.1C759.2 596.3 788.1 570.1 809.0 549.2C813.4 544.8 818.6 544.8 818.6 553.5C818.6 563.1 817.8 572.8 814.3 581.5C813.4 590.2 809.0 598.1 801.2 600.7C792.4 603.3 772.3 607.7 768.8 605.1ZM738.3 734.3C749.6 712.5 759.2 689.8 766.2 669.7C768.8 662.7 770.6 658.4 779.3 653.1C781.9 652.2 785.4 650.5 788.1 648.7C795.0 647.9 796.8 652.2 794.2 661.0C781.9 687.2 768.8 713.4 753.1 735.2C727.8 771.9 722.5 764.9 738.3 734.3ZM842.2 440.9C840.5 433.9 837.8 426.9 836.1 420.8C833.5 414.7 835.2 408.5 837.8 407.7C848.3 403.3 853.6 399.8 859.7 399.8C865.8 399.8 868.4 401.6 868.4 407.7C868.4 412.9 864.0 425.1 852.7 440.9C846.6 447.0 844.0 447.0 842.2 440.9Z" data-tag="?"/>
  </g>
</svg>
