<svg xmlns="http://www.w3.org/2000/svg" viewBox="0 0 1080 1080" width="100%">
  <g>
    <defs/>
    <path fill="rgba(0.0, 0.0, 0.0, 1.0)" d="M175.9 436.7C165.6 436.7 150.4 433.8 138.1 433.8C122.8 433.8 114.0 445.1 108.1 479.1C102.1 510.0 98.7 530.2 80.5 546.5C53.0 573.0 50.0 583.8 50.0 597.6C50.0 613.9 66.2 636.0 103.1 671.9C124.3 691.6 121.8 716.7 146.4 716.7C168.1 716.7 169.5 702.9 196.6 693.6C232.5 680.3 239.9 674.4 239.9 657.1C239.9 634.5 220.7 612.9 220.7 595.2C220.7 578.9 234.0 560.7 244.8 560.7C249.2 560.7 252.2 563.7 252.2 567.6C252.2 572.5 241.9 591.7 241.9 605.5C241.9 620.2 264.5 635.5 291.1 635.5C315.7 635.5 326.5 607.5 326.5 577.9C326.5 559.7 320.6 556.3 320.6 548.4C320.6 543.0 325.5 527.3 331.4 527.3C336.3 527.3 342.2 546.0 342.2 556.3C342.2 566.1 336.3 577.0 336.3 584.3C336.3 596.1 354.5 608.0 373.7 608.0C395.9 608.0 403.7 584.8 403.7 574.5C403.7 567.1 401.8 558.3 401.8 552.4C401.8 538.6 409.1 515.5 415.0 515.5C420.0 515.5 422.4 518.4 422.4 522.8C422.4 528.7 415.0 545.5 415.0 556.8C415.0 570.1 425.9 586.3 439.6 586.3C453.9 586.3 460.3 559.2 466.2 559.2C471.1 559.2 472.1 587.3 485.4 587.3C497.2 587.3 508.0 540.1 515.9 540.1C517.9 540.1 519.8 541.5 519.8 544.0C519.8 546.5 517.4 560.7 517.4 565.6C517.4 572.5 523.3 579.9 531.6 579.9C542.0 579.9 543.9 566.1 548.4 531.2C551.3 510.0 558.7 492.3 565.1 492.3C571.5 492.3 574.4 497.3 574.4 502.2C574.4 517.4 555.3 532.7 555.3 548.9C555.3 560.7 565.1 582.9 579.8 582.9C597.6 582.9 605.4 546.0 611.3 546.0C619.7 546.0 621.7 587.8 643.8 587.8C660.5 587.8 675.3 547.9 684.1 547.9C688.6 547.9 689.6 551.4 689.6 554.8C689.6 561.7 684.1 569.1 684.1 577.0C684.1 583.8 691.0 586.3 696.0 585.3C711.2 583.8 727.4 583.8 733.3 583.8C740.2 583.8 742.7 577.4 742.7 573.0C742.7 558.3 725.0 541.5 725.0 528.7C725.0 517.4 732.4 514.5 751.5 513.5C768.3 513.5 778.6 511.5 778.6 499.2C778.6 491.8 774.2 484.5 773.7 477.1C771.2 466.8 773.2 445.6 762.9 445.6C745.6 445.6 737.8 499.2 729.4 499.2C726.5 499.2 725.0 497.3 725.0 494.8C725.0 488.4 732.4 477.1 732.4 470.2C732.4 463.3 725.5 452.0 718.6 452.0C707.8 452.0 706.3 478.1 696.0 505.1C686.6 532.7 677.8 544.0 662.0 544.0C647.2 544.0 637.4 541.0 637.4 535.6C637.4 530.2 646.8 526.8 659.1 525.8C672.3 525.3 687.1 519.4 687.1 500.2C687.1 483.0 675.3 467.7 662.0 467.7C630.0 467.7 622.2 532.7 604.9 532.7C601.5 532.7 596.6 529.7 596.6 524.3C596.6 514.5 623.6 483.0 623.6 464.3C623.6 445.1 610.4 431.8 596.6 431.8C580.3 431.8 557.7 480.5 552.3 480.5C548.9 480.5 546.9 478.6 546.9 474.6C546.9 458.9 562.6 453.5 576.9 416.1C584.3 396.4 604.9 381.2 604.9 372.8C604.9 367.9 600.5 362.5 592.6 363.4C542.0 368.4 528.2 379.7 525.7 435.3C522.8 502.7 512.4 533.2 504.1 533.2C498.2 533.2 494.2 521.9 494.2 507.6C494.2 484.5 502.1 470.2 505.1 448.6C508.5 424.0 519.8 406.2 519.8 387.5C519.8 377.2 515.9 370.3 507.5 370.3C491.8 370.3 458.3 389.0 458.3 409.2C458.3 429.4 476.0 441.2 476.0 467.7C476.0 473.2 474.1 476.6 470.6 476.6C463.7 476.6 460.8 472.7 451.4 472.7C434.7 472.7 423.4 501.2 416.0 501.2C407.7 501.2 400.8 457.9 380.1 457.9C353.1 457.9 346.2 474.1 340.3 485.0C335.3 495.3 328.9 514.5 322.1 514.5C316.6 514.5 306.3 494.3 290.1 494.3C275.8 494.3 255.2 544.0 244.8 544.0C221.2 544.0 189.7 534.2 155.8 534.2C139.5 534.2 129.7 542.5 129.7 556.3C129.7 562.2 132.2 570.1 132.7 578.9C132.7 590.2 135.1 596.1 144.0 596.1C158.7 596.1 180.4 575.5 191.2 575.5C197.1 575.5 201.0 579.9 201.0 587.3C201.0 603.0 184.8 642.9 164.1 642.9C144.0 642.9 137.6 613.4 122.3 592.7C111.5 577.9 103.6 580.4 103.6 561.7C103.6 531.7 144.9 495.3 166.1 495.3C189.7 495.3 196.6 531.7 218.3 531.7C232.5 531.7 248.3 513.5 248.3 502.2C248.3 488.9 236.0 480.5 231.5 471.7C221.7 452.0 224.2 431.8 206.9 431.8C192.2 431.8 185.3 436.7 175.9 436.7ZM284.7 539.1C289.6 539.1 290.6 545.0 295.0 548.4C298.9 552.4 305.8 549.4 305.8 558.8C305.8 562.2 300.4 577.4 292.0 577.4C282.7 577.4 274.3 566.6 274.3 557.3C274.3 548.4 278.3 539.1 284.7 539.1ZM373.7 502.7C382.6 502.7 389.5 530.7 389.5 540.6C389.5 550.9 385.5 559.2 376.7 559.2C367.3 559.2 356.0 546.5 356.0 533.7C356.0 520.4 360.9 502.7 373.7 502.7ZM467.2 499.2C471.6 499.2 473.6 502.7 473.6 509.1C473.6 516.0 466.2 539.1 458.3 539.1C451.4 539.1 445.1 526.8 445.1 519.9C445.1 510.0 458.3 499.2 467.2 499.2ZM656.6 491.8C662.5 491.8 664.5 496.3 664.5 501.7C664.5 510.0 654.1 515.0 649.2 515.0C645.3 515.0 643.8 513.0 643.8 509.1C643.8 502.2 649.2 491.8 656.6 491.8ZM829.8 443.6C823.4 443.6 817.5 448.6 809.6 462.8C802.2 476.6 781.6 477.1 781.6 489.9C781.6 498.7 788.9 501.7 788.9 509.1C788.9 519.9 761.4 541.0 761.4 558.3C761.4 575.5 781.1 596.1 799.8 596.1C820.9 596.1 856.3 534.2 877.5 534.2C884.9 534.2 888.8 541.5 888.8 548.9C888.8 558.3 880.4 570.1 875.0 570.1C869.1 570.1 864.2 566.1 859.3 566.1C851.4 566.1 837.6 581.4 837.6 589.7C837.6 598.6 856.8 599.6 856.8 604.5C856.8 608.9 851.9 612.9 837.6 613.4C797.8 616.3 783.5 621.7 783.5 649.8C783.5 668.5 793.4 689.1 804.2 689.1C814.5 689.1 824.8 685.2 831.2 685.2C839.6 685.2 850.4 689.1 868.6 689.1C885.4 689.1 898.2 665.5 898.2 623.7C899.6 616.3 901.1 611.4 909.5 608.9C917.8 606.0 940.0 597.1 953.3 597.1C976.4 597.1 998.0 605.5 1019.2 605.5C1026.6 605.5 1030.0 600.1 1030.0 592.2C1030.0 587.8 1023.1 548.4 1003.4 548.4C983.8 548.4 969.5 567.1 950.8 569.1C932.1 571.1 908.5 593.2 898.6 593.2C890.3 593.2 882.9 589.7 882.9 585.3C882.9 579.4 941.4 556.8 941.4 530.2C941.4 502.7 928.7 478.6 912.9 478.6C884.9 478.6 848.5 551.9 818.5 551.9C810.1 551.9 804.7 545.5 804.7 537.6C804.7 531.2 809.1 519.9 811.6 519.9C818.0 519.9 824.8 528.7 832.7 528.7C841.6 528.7 852.4 512.5 852.4 502.2C852.4 494.3 851.9 490.9 843.5 491.4C832.2 491.8 828.8 489.4 828.8 483.0C828.8 477.1 833.7 459.9 833.7 450.5C833.7 446.1 833.2 443.6 829.8 443.6ZM850.4 625.7C855.8 625.7 856.8 628.1 856.8 631.6C856.8 637.0 850.9 649.8 843.1 649.8C834.2 649.8 827.3 646.3 827.3 638.5C827.3 630.6 839.6 625.7 850.4 625.7ZM242.4 687.6C242.4 690.1 243.8 691.6 246.3 691.6C256.6 691.6 285.7 680.3 332.9 674.9C362.4 671.9 376.2 649.3 399.3 649.3C412.1 649.3 434.7 653.7 444.1 653.7C462.3 653.7 465.7 643.9 473.1 643.9C480.0 643.9 502.1 654.2 530.7 654.2C548.4 654.2 566.1 644.8 579.8 644.8C592.6 644.8 607.9 649.8 617.2 649.8C632.0 649.8 644.3 642.9 656.6 642.9C670.9 642.9 706.8 662.6 730.4 662.6C743.7 662.6 751.5 651.7 758.4 644.8C765.3 638.0 779.1 629.1 779.1 618.8C779.1 608.4 761.9 590.2 751.5 590.2C735.3 590.2 708.7 610.9 683.7 610.9C659.5 610.9 623.6 594.2 610.8 594.2C598.1 594.2 575.9 602.5 554.8 610.4C533.6 619.3 507.0 613.4 478.0 606.0C449.0 598.1 437.2 602.5 406.2 619.3C375.2 636.5 336.3 650.3 310.3 649.8C284.7 649.3 275.3 652.7 262.5 662.6C249.2 671.9 242.4 677.8 242.4 687.6Z" data-tag="?"/>
  </g>
</svg>
